<svg width="409" height="305" viewBox="0 0 409 305" fill="none" xmlns="http://www.w3.org/2000/svg">
  <path d="M353.84 0.524409H121.926C100.404 0.524409 79.7217 26.0509 71.5124 47.0871C54.7341 90.081 3.56732 215.595 0.790222 232.392C-1.98687 249.19 15.9756 264.37 20.529 271.369L51.7056 303.877C82.948 230.887 133.79 114.428 137.79 107.5C141.79 100.572 149.79 72.9941 176.072 72.9941H407.79C407.79 72.4883 383.84 20.483 375.536 10.523C363.479 3.25797 359.626 0.191122 353.84 0.524409Z" fill="#5E5C75"/>
  <path d="M232.79 184.495H283.095L358.354 281.485H309.238C291.637 281.485 280.322 278.547 275.569 273.467C267.319 264.65 241.504 233.385 228.829 216.551C224.906 211.34 220.115 202.923 220.115 202.923C217.342 194.907 222.089 184.495 232.79 184.495Z" fill="#5E5C75"/>
  <path d="M223.763 107.234C226.642 100.71 233.1 96.5 240.231 96.5L309.965 96.5C319.677 96.5 326.218 106.439 322.376 115.359L311.063 141.621C308.219 148.223 301.72 152.5 294.532 152.5H231.407C218.402 152.5 209.689 139.132 214.938 127.234L223.763 107.234Z" fill="#5E5C75"/>
</svg>
